<?xml version="1.0" encoding="utf-8"?>
<!-- Generator: Adobe Illustrator 19.0.0, SVG Export Plug-In . SVG Version: 6.00 Build 0)  -->
<svg version="1.1" id="Capa_1" xmlns="http://www.w3.org/2000/svg" xmlns:xlink="http://www.w3.org/1999/xlink" x="0px" y="0px"
	 viewBox="-283 377 48 48" style="enable-background:new -283 377 48 48;" xml:space="preserve">
<g>
	<path d="M-251.6,386.5v-4.4h-3v-0.8c0-2.4-1.9-4.3-4.3-4.3s-4.3,1.9-4.3,4.3v0.8h-3v4.4c-7.4,2.9-12.6,10.1-12.6,18.5
		c0,11,9,20,20,20s20-9,20-20C-239,396.6-244.3,389.5-251.6,386.5z M-261.3,381.3c0-1.3,1-2.3,2.3-2.3s2.3,1,2.3,2.3v0.8h-4.7V381.3
		z M-264.4,384.1h10.8v1.8c-1.7-0.5-3.5-0.8-5.4-0.8s-3.7,0.3-5.4,0.8V384.1z"/>
</g>
</svg>
