<?xml version="1.0" encoding="utf-8"?>
<!-- Generator: Adobe Illustrator 19.0.0, SVG Export Plug-In . SVG Version: 6.00 Build 0)  -->
<svg version="1.1" id="Layer_1" xmlns="http://www.w3.org/2000/svg" xmlns:xlink="http://www.w3.org/1999/xlink" x="0px" y="0px"
	 viewBox="-51 145 512 512" style="enable-background:new -51 145 512 512;" xml:space="preserve">
<g>
	<path d="M342.2,250.9c9.3-10,15.1-23.6,15.1-38.6c0-31.3-25-56.3-55.3-56.3c-23,0-76,34.4-97.2,65.3C182.9,190.4,130.1,157,108,157
		c-30.2,0-55.3,25-55.3,56.3c0,14.5,5.4,27.6,14.1,37.5H-40v134.5h29.2V646h153.3h125.1h153.3V385.4H450V250.9
		C450,250.9,342.2,250.9,342.2,250.9z M302,176.9c18.8,0,34.4,15.6,34.4,36.5c0,17.6-12.3,32.7-28.2,35.9h-84.6
		c-5.4-1.6-7.1-3.5-7.1-4.6C216.5,226.9,279,176.9,302,176.9L302,176.9z M108,176.9c21.9,0,85.5,50,85.5,67.8c0,1.6-3.7,3.4-6.4,4.6
		h-85.2C86,246.1,73.7,231,73.7,213.4C73.6,193.5,89.3,176.9,108,176.9L108,176.9z"/>
</g>
</svg>
